<svg width="13" height="16" viewBox="0 0 13 16" fill="none" xmlns="http://www.w3.org/2000/svg">
<path d="M13 14.2227V16H4.52085e-05V14.2227C-0.00451154 13.2911 0.335553 12.3925 0.951639 11.708C1.56133 11.0413 2.38813 10.6667 3.25002 10.6667H9.74998C10.1822 10.6693 10.6093 10.7631 11.0047 10.9422C11.4001 11.1214 11.7554 11.382 12.0484 11.708C12.6644 12.3925 13.0045 13.2911 13 14.2227Z" fill="black"/>
<path d="M8.79808 5.69036C8.18859 6.31548 7.36195 6.66667 6.5 6.66667C5.63805 6.66667 4.81141 6.31548 4.20192 5.69036C3.59243 5.06523 3.25002 4.21739 3.25002 3.33333C3.25002 2.44928 3.59243 1.60143 4.20192 0.976311C4.81141 0.351189 5.63805 0 6.5 0C7.36195 0 8.18859 0.351189 8.79808 0.976311C9.40757 1.60143 9.74998 2.44928 9.74998 3.33333C9.74998 4.21739 9.40757 5.06523 8.79808 5.69036Z" fill="black"/>
</svg>
