<!-- icon666.com - MILLIONS vector ICONS FREE --><svg clip-rule="evenodd" fill-rule="evenodd" stroke-linejoin="round" stroke-miterlimit="2" viewBox="0 0 24 24" xmlns="http://www.w3.org/2000/svg"><g id="Icon"><g><path d="m10.47 3.709c-1.91 3.439-6.435 11.584-8.3 14.941-.301.542-.293 1.203.021 1.737.315.535.888.863 1.508.863h16.602c.62 0 1.193-.328 1.508-.863.314-.534.322-1.195.021-1.737l-8.3-14.941c-.309-.555-.894-.9-1.53-.9s-1.221.345-1.53.9zm1.53 12.791c.552 0 1 .448 1 1s-.448 1-1 1-1-.448-1-1 .448-1 1-1zm1.385-7.006c.03-.385-.103-.765-.365-1.049-.263-.284-.632-.445-1.019-.445-.001 0-.001 0-.002 0-.387 0-.756.161-1.019.445-.262.284-.395.664-.365 1.049.097 1.259.232 3.02.314 4.083.04.521.474.923.997.923h.148c.523 0 .957-.402.997-.923.082-1.063.217-2.824.314-4.083z"></path></g></g></svg>