<!-- icon666.com - MILLIONS vector ICONS FREE --><svg enable-background="new 0 0 16 16" viewBox="0 0 16 16" xmlns="http://www.w3.org/2000/svg"><g id="line" display="none"><path d="m7.5 10.5v4l-7-6.5 7-6.5v4h8v5h-6" style="display:inline;opacity:.2;fill:none;stroke:#000;stroke-linecap:round;stroke-linejoin:round;stroke-miterlimit:10"></path></g><g id="line_1_x2C_5" display="none"><g display="inline"><path d="m7.3 15c-.2 0-.4-.1-.5-.2l-6.6-6.3c-.1-.1-.2-.3-.2-.5s.1-.4.2-.5l6.5-6.3c.2-.2.6-.3.8-.1.3.1.5.3.5.7v3.2h7.3c.4 0 .7.3.7.8v4.5c0 .4-.3.8-.8.8h-5c-.4 0-.8-.3-.8-.8s.3-.8.8-.8h4.3v-3h-7.2c-.4 0-.8-.3-.8-.8v-2.2l-4.7 4.5 4.7 4.5v-1.7c0-.4.3-.8.8-.8s.7.3.7.8v3.5c0 .3-.2.6-.5.7-.1 0-.2 0-.2 0z"></path></g></g><g id="line_expanded" display="none"><g display="inline"><path d="m7.5 1h.2c.2.1.3.3.3.5v3.5h7.5c.3 0 .5.2.5.5v5c0 .3-.2.5-.5.5h-6c-.3 0-.5-.2-.5-.5s.2-.5.5-.5h5.5v-4h-7.5c-.3 0-.5-.2-.5-.5v-2.9l-5.8 5.4 5.8 5.4v-2.9c0-.3.2-.5.5-.5s.5.2.5.5v4c0 .2-.1.4-.3.5s-.4 0-.5-.1l-7-6.5c-.1-.1-.2-.3-.2-.4s.1-.3.2-.4l7-6.5c.1-.1.2-.1.3-.1z"></path></g></g><g id="solid"><g><path d="m7.2 14.9-7-6.5c-.1-.1-.2-.3-.2-.4s.1-.3.2-.4l7-6.5c.1-.1.3-.1.5-.1.2.1.3.3.3.5v3.5h7.5c.3 0 .5.2.5.5v5c0 .3-.2.5-.5.5h-7.5v3.5c0 .2-.1.4-.3.5-.1 0-.1 0-.2 0s-.2 0-.3-.1z"></path></g></g><g id="filled_line" display="none"><g display="inline"><path d="m7.5 5.5v-2l-5.9 5.5 5.9 5.5v-4h8v-5z" fill="#f9c00c"></path><g><path d="m0 8c0 .1.1.3.2.4l7 6.5c.1.1.3.1.5.1.2-.1.3-.3.3-.5v-4c0-.3-.2-.5-.5-.5s-.5.2-.5.5v2.9l-5.8-5.4 5.8-5.4v2.9c0 .3.2.5.5.5h7.5v4h-5.5c-.3 0-.5.2-.5.5s.2.5.5.5h6c.3 0 .5-.2.5-.5v-5c0-.3-.2-.5-.5-.5h-7.5v-3.5c0-.2-.1-.4-.3-.5-.2 0-.4 0-.5.1l-7 6.5c-.1.1-.2.3-.2.4z" fill="#3e3643"></path></g></g></g><g id="flat" display="none"><g display="inline"><g><path d="m0 8h16v-2.5c0-.3-.2-.5-.5-.5h-7.5v-3.5c0-.2-.1-.4-.3-.5-.2 0-.4 0-.5.1l-7 6.5c-.1.1-.2.3-.2.4z" fill="#03e6b1"></path></g><g><path d="m.2 8.4 7 6.5c.1.1.3.1.5.1.2-.1.3-.3.3-.5v-3.5h7.5c.3 0 .5-.2.5-.5v-2.5h-16c0 .1.1.3.2.4z" fill="#05c190"></path></g></g></g><g id="colored_line" display="none"><g display="inline"><path d="m7.5 1h.2c.2.1.3.3.3.5v3.5h7.5c.3 0 .5.2.5.5v5c0 .3-.2.5-.5.5h-6c-.3 0-.5-.2-.5-.5s.2-.5.5-.5h5.5v-4h-7.5c-.3 0-.5-.2-.5-.5v-2.9l-5.8 5.4 5.8 5.4v-2.9c0-.3.2-.5.5-.5s.5.2.5.5v4c0 .2-.1.4-.3.5s-.4 0-.5-.1l-7-6.5c-.1-.1-.2-.3-.2-.4s.1-.3.2-.4l7-6.5c.1-.1.2-.1.3-.1z" fill="#1689fc"></path></g></g><g id="duo_tone" display="none"><g display="inline"><path d="m.5 8 7-6.5v4h8v5h-8v4z" fill="#00ecce"></path><g><path d="m7.5 1h.2c.2.1.3.3.3.5v3.5h7.5c.3 0 .5.2.5.5v5c0 .3-.2.5-.5.5h-6c-.3 0-.5-.2-.5-.5s.2-.5.5-.5h5.5v-4h-7.5c-.3 0-.5-.2-.5-.5v-2.9l-5.8 5.4 5.8 5.4v-2.9c0-.3.2-.5.5-.5s.5.2.5.5v4c0 .2-.1.4-.3.5s-.4 0-.5-.1l-7-6.5c-.1-.1-.2-.3-.2-.4s.1-.3.2-.4l7-6.5c.1-.1.2-.1.3-.1z" fill="#01a28e"></path></g></g></g></svg>