<svg width="17" height="17" viewBox="0 0 17 17" fill="none" xmlns="http://www.w3.org/2000/svg">
<g clip-path="url(#clip0_255_1545)">
<path d="M16.6263 8.1288C16.6254 3.63846 12.9845 -0.000907729 8.49403 1.6983e-07C4.0037 0.000908069 0.364327 3.64197 0.365235 8.1323C0.366013 11.6693 2.65327 14.8 6.02274 15.8759C6.0549 15.886 6.08836 15.8912 6.12196 15.8911C6.18603 15.8909 6.2488 15.8738 6.30392 15.8413C6.37565 15.7988 6.42921 15.7314 6.45438 15.6519L8.50765 9.14409C9.06899 9.14123 9.52164 8.68378 9.51866 8.12257C9.51581 7.56123 9.05849 7.10858 8.49715 7.11143C8.34618 7.11208 8.19715 7.14684 8.06149 7.21312L5.34895 4.50019C5.21432 4.37023 4.99992 4.37399 4.86996 4.50849C4.74312 4.63988 4.74312 4.84791 4.86996 4.9793L7.58108 7.69352C7.37304 8.11816 7.49197 8.63073 7.86603 8.92022L5.90964 15.1214C2.04329 13.6972 0.063553 9.40841 1.48779 5.54207C2.91202 1.67572 7.2008 -0.304016 11.0671 1.12022C14.9335 2.54445 16.9132 6.83336 15.489 10.6996C14.7932 12.5885 13.3635 14.1161 11.5247 14.9354L11.3133 13.9397C11.2747 13.7567 11.0948 13.6397 10.9118 13.6785C10.854 13.6908 10.8005 13.7179 10.7564 13.7572L8.71803 15.5771C8.57821 15.7014 8.56576 15.9156 8.69027 16.0554C8.73074 16.1008 8.78262 16.1345 8.84072 16.1531L11.4431 16.9837C11.6212 17.0408 11.812 16.9429 11.8692 16.7647C11.8874 16.7084 11.8904 16.6485 11.8782 16.5907L11.6704 15.6136C14.6795 14.345 16.6333 11.3944 16.6263 8.1288ZM8.49585 7.79002C8.68288 7.79002 8.83463 7.94177 8.83463 8.1288C8.83463 8.31595 8.68288 8.46757 8.49585 8.46757C8.30869 8.46757 8.15707 8.31595 8.15707 8.1288C8.15707 7.94177 8.30869 7.79002 8.49585 7.79002ZM9.61166 15.6865L10.7719 14.6515L11.0922 16.1604L9.61166 15.6865Z" fill="white"/>
<path d="M8.15625 1.69205V2.3696C8.15625 2.55675 8.30787 2.70837 8.49503 2.70837C8.68205 2.70837 8.8338 2.55675 8.8338 2.3696V1.69205C8.8338 1.50502 8.68205 1.35327 8.49503 1.35327C8.30787 1.35327 8.15625 1.50502 8.15625 1.69205Z" fill="white"/>
<path d="M2.05948 7.79004C1.87232 7.79004 1.7207 7.94179 1.7207 8.12881C1.7207 8.31597 1.87232 8.46759 2.05948 8.46759H2.73703C2.92419 8.46759 3.07581 8.31597 3.07581 8.12881C3.07581 7.94179 2.92419 7.79004 2.73703 7.79004H2.05948Z" fill="white"/>
<path d="M14.9323 8.46759C15.1195 8.46759 15.2711 8.31597 15.2711 8.12881C15.2711 7.94179 15.1195 7.79004 14.9323 7.79004H14.2548C14.0678 7.79004 13.916 7.94179 13.916 8.12881C13.916 8.31597 14.0678 8.46759 14.2548 8.46759H14.9323Z" fill="white"/>
</g>
<defs>
<clipPath id="clip0_255_1545">
<rect width="17" height="17" fill="white"/>
</clipPath>
</defs>
</svg>
