<svg width="21" height="21" viewBox="0 0 21 21" fill="none" xmlns="http://www.w3.org/2000/svg">
<path fill-rule="evenodd" clip-rule="evenodd" d="M2.25246 11.119C2.0954 10.8759 1.96862 10.6653 1.87299 10.5C1.96862 10.3347 2.0954 10.1241 2.25246 9.88096C2.65585 9.25635 3.25324 8.42573 4.02882 7.59845C5.59592 5.92687 7.78691 4.375 10.4998 4.375C13.2128 4.375 15.4038 5.92687 16.9709 7.59845C17.7465 8.42573 18.3438 9.25635 18.7472 9.88096C18.9043 10.1241 19.0311 10.3347 19.1267 10.5C19.0311 10.6653 18.9043 10.8759 18.7472 11.119C18.3438 11.7436 17.7465 12.5743 16.9709 13.4016C15.4038 15.0731 13.2128 16.625 10.4998 16.625C7.78691 16.625 5.59592 15.0731 4.02882 13.4016C3.25324 12.5743 2.65585 11.7436 2.25246 11.119ZM20.9072 10.1081C20.9072 10.1081 21.0404 10.6248 20.9072 10.8919L20.9057 10.8947L20.9027 10.9007L20.8928 10.9202C20.8845 10.9364 20.8727 10.9591 20.8574 10.9879C20.827 11.0454 20.7828 11.1272 20.7251 11.2298C20.6098 11.4348 20.44 11.7237 20.2173 12.0685C19.773 12.7564 19.1126 13.6757 18.2476 14.5984C16.5334 16.4269 13.9119 18.375 10.4998 18.375C7.08778 18.375 4.46627 16.4269 2.75213 14.5984C1.88708 13.6757 1.22665 12.7564 0.78239 12.0685C0.559715 11.7237 0.389914 11.4348 0.274571 11.2298C0.216867 11.1272 0.172694 11.0454 0.142255 10.9879C0.127033 10.9591 0.115237 10.9364 0.106892 10.9202L0.0969623 10.9007L0.0939426 10.8947L0.0929199 10.8927L0.0925304 10.1081L0.0939426 10.1053L0.0969623 10.0993L0.106892 10.0798C0.115237 10.0636 0.127033 10.0409 0.142255 10.0121C0.172694 9.95461 0.216867 9.87283 0.274571 9.77024C0.389914 9.56519 0.559715 9.27633 0.78239 8.93154C1.22665 8.24365 1.88708 7.32427 2.75213 6.40155C4.46627 4.57313 7.08778 2.625 10.4998 2.625C13.9119 2.625 16.5334 4.57313 18.2476 6.40155C19.1126 7.32427 19.773 8.24365 20.2173 8.93154C20.44 9.27633 20.6098 9.56519 20.7251 9.77024C20.7828 9.87283 20.827 9.95461 20.8574 10.0121C20.8727 10.0409 20.8845 10.0636 20.8928 10.0798L20.9027 10.0993L20.9057 10.1053L20.9072 10.1081ZM20.9072 10.8919C21.0303 10.6456 21.0303 10.3544 20.9072 10.1081C20.9072 10.1081 21.0404 10.6248 20.9072 10.8919ZM0.0922223 10.8913L0.0923764 10.4997L0.0925304 10.1081C-0.0306379 10.3544 -0.030946 10.645 0.0922223 10.8913ZM10.4998 7C9.57159 7 8.68135 7.36875 8.02497 8.02513C7.36859 8.6815 6.99985 9.57174 6.99985 10.5C6.99985 11.4283 7.36859 12.3185 8.02497 12.9749C8.68135 13.6313 9.57159 14 10.4998 14C11.4281 14 12.3183 13.6313 12.9747 12.9749C13.6311 12.3185 13.9998 11.4283 13.9998 10.5C13.9998 9.57174 13.6311 8.6815 12.9747 8.02513C12.3183 7.36875 11.4281 7 10.4998 7ZM11.7373 11.7374C11.4091 12.0656 10.964 12.25 10.4998 12.25C10.0357 12.25 9.5906 12.0656 9.26241 11.7374C8.93422 11.4092 8.74985 10.9641 8.74985 10.5C8.74985 10.0359 8.93422 9.59075 9.26241 9.26256C9.5906 8.93437 10.0357 8.75 10.4998 8.75C10.964 8.75 11.4091 8.93437 11.7373 9.26256C12.0655 9.59075 12.2498 10.0359 12.2498 10.5C12.2498 10.9641 12.0655 11.4092 11.7373 11.7374Z" fill="black"/>
</svg>
