<svg width="19" height="19" viewBox="0 0 19 19" fill="none" xmlns="http://www.w3.org/2000/svg">
<path d="M12.8891 17.4958H9.88081C9.43747 17.4958 8.47164 17.3613 7.95706 16.8467L5.55831 14.9942L6.28664 14.0521L8.74081 15.9521C8.93872 16.1421 9.43747 16.3004 9.88081 16.3004H12.8891C13.6016 16.3004 14.3696 15.7304 14.5279 15.0892L16.4437 9.27043C16.5704 8.9221 16.5466 8.60543 16.3804 8.37585C16.2062 8.13043 15.8896 7.98793 15.5016 7.98793H12.335C11.9233 7.98793 11.5433 7.81376 11.2821 7.51293C11.0129 7.20418 10.8941 6.79251 10.9575 6.36501L11.3533 3.82376C11.4483 3.38043 11.1475 2.88168 10.72 2.73918C10.3321 2.59668 9.83331 2.80251 9.65914 3.05585L6.41331 7.88501L5.43164 7.22793L8.67747 2.39876C9.17622 1.6546 10.2687 1.29835 11.1237 1.62293C12.1133 1.94751 12.7466 3.04001 12.525 4.05335L12.1371 6.5471C12.1291 6.60251 12.1291 6.68168 12.1846 6.74501C12.2241 6.7846 12.2796 6.80835 12.3429 6.80835H15.5096C16.2854 6.80835 16.9583 7.13293 17.3541 7.69501C17.7421 8.24126 17.8212 8.96168 17.5679 9.65835L15.6758 15.4217C15.3829 16.5696 14.1637 17.4958 12.8891 17.4958Z" fill="black"/>
<path d="M4.25977 16.625H3.4681C2.00352 16.625 1.29102 15.9363 1.29102 14.5271V6.76875C1.29102 5.35959 2.00352 4.67084 3.4681 4.67084H4.25977C5.72435 4.67084 6.43685 5.35959 6.43685 6.76875V14.5271C6.43685 15.9363 5.72435 16.625 4.25977 16.625ZM3.4681 5.85834C2.60518 5.85834 2.47852 6.06417 2.47852 6.76875V14.5271C2.47852 15.2317 2.60518 15.4375 3.4681 15.4375H4.25977C5.12268 15.4375 5.24935 15.2317 5.24935 14.5271V6.76875C5.24935 6.06417 5.12268 5.85834 4.25977 5.85834H3.4681Z" fill="black"/>
</svg>
