<svg width="24" height="31" viewBox="0 0 24 31" fill="none" xmlns="http://www.w3.org/2000/svg">
<path d="M10.4493 9.64871C10.2593 9.64871 10.0692 9.55833 9.91922 9.36458L6.72922 5.24416L3.53922 9.36458C3.24922 9.73917 2.76922 9.73917 2.47922 9.36458C2.18922 8.99 2.18922 8.37 2.47922 7.99542L6.19925 3.19038C6.33925 3.00955 6.52922 2.90625 6.72922 2.90625C6.92922 2.90625 7.11925 3.00955 7.25925 3.19038L10.9792 7.99542C11.2692 8.37 11.2692 8.99 10.9792 9.36458C10.8292 9.55833 10.6392 9.64871 10.4493 9.64871Z" fill="black"/>
<path d="M6.73047 28.0938C6.32047 28.0938 5.98047 27.6546 5.98047 27.125V3.875C5.98047 3.34542 6.32047 2.90625 6.73047 2.90625C7.14047 2.90625 7.48047 3.34542 7.48047 3.875V27.125C7.48047 27.6546 7.14047 28.0938 6.73047 28.0938Z" fill="black"/>
<path d="M17.28 28.0937C17.08 28.0937 16.89 27.9904 16.75 27.8096L13.03 23.0045C12.74 22.6299 12.74 22.01 13.03 21.6354C13.32 21.2608 13.8 21.2608 14.09 21.6354L17.28 25.7558L20.4699 21.6354C20.7599 21.2608 21.24 21.2608 21.53 21.6354C21.82 22.01 21.82 22.6299 21.53 23.0045L17.81 27.8096C17.67 27.9904 17.47 28.0937 17.28 28.0937Z" fill="black"/>
<path d="M17.2695 28.0938C16.8595 28.0938 16.5195 27.6546 16.5195 27.125V3.875C16.5195 3.34542 16.8595 2.90625 17.2695 2.90625C17.6795 2.90625 18.0195 3.34542 18.0195 3.875V27.125C18.0195 27.6546 17.6895 28.0938 17.2695 28.0938Z" fill="black"/>
</svg>
